<svg width="755" height="559" viewBox="0 0 755 559" fill="none" xmlns="http://www.w3.org/2000/svg">
<g opacity="0.3">
<circle opacity="0.3" cx="15" cy="75" r="14.5" stroke="#31ABDF"/>
<circle cx="63.955" cy="23.8461" r="2.328" transform="rotate(-120 63.955 23.8461)" stroke="white"/>
<circle cx="367.863" cy="453.863" r="2.328" transform="rotate(-120 367.863 453.863)" stroke="white"/>
<circle cx="658.863" cy="258.863" r="2.328" transform="rotate(-120 658.863 258.863)" stroke="white"/>
<circle cx="19.863" cy="554.863" r="2.328" transform="rotate(-120 19.863 554.863)" stroke="white"/>
<path d="M8.74444 10.6251L9.79414 9.7604L11.2387 11.514L12.9553 10.0999L13.7793 11.1002L12.0628 12.5143L13.5073 14.2679L12.4577 15.1326L11.0131 13.379L9.28415 14.8033L8.46013 13.803L10.189 12.3787L8.74444 10.6251Z" fill="white"/>
<path d="M86.7444 68.6251L87.7941 67.7604L89.2387 69.514L90.9553 68.0999L91.7793 69.1002L90.0628 70.5143L91.5073 72.2679L90.4577 73.1326L89.0131 71.379L87.2842 72.8033L86.4601 71.803L88.189 70.3787L86.7444 68.6251Z" fill="white"/>
<path d="M390.652 498.642L391.702 497.777L393.147 499.531L394.863 498.117L395.687 499.117L393.971 500.531L395.415 502.285L394.366 503.15L392.921 501.396L391.192 502.82L390.368 501.82L392.097 500.396L390.652 498.642Z" fill="white"/>
<path d="M740.744 217.625L741.794 216.76L743.239 218.514L744.955 217.1L745.779 218.1L744.063 219.514L745.507 221.268L744.458 222.133L743.013 220.379L741.284 221.803L740.46 220.803L742.189 219.379L740.744 217.625Z" fill="white"/>
<path d="M117.744 463.625L118.794 462.76L120.239 464.514L121.955 463.1L122.779 464.1L121.063 465.514L122.507 467.268L121.458 468.133L120.013 466.379L118.284 467.803L117.46 466.803L119.189 465.379L117.744 463.625Z" fill="white"/>
<path d="M422.744 56.6251L423.794 55.7604L425.239 57.514L426.955 56.0999L427.779 57.1002L426.063 58.5143L427.507 60.2679L426.458 61.1326L425.013 59.379L423.284 60.8033L422.46 59.803L424.189 58.3787L422.744 56.6251Z" fill="white"/>
</g>
</svg>
