<svg width="285" height="81" viewBox="0 0 285 81" fill="none" xmlns="http://www.w3.org/2000/svg">
<path d="M270.744 66.6251L271.794 65.7604L273.239 67.514L274.955 66.0999L275.779 67.1002L274.063 68.5143L275.507 70.2679L274.458 71.1326L273.013 69.379L271.284 70.8033L270.46 69.803L272.189 68.3787L270.744 66.6251Z" fill="#31ABDF"/>
<path d="M8.74444 10.6251L9.79414 9.76039L11.2387 11.514L12.9553 10.0999L13.7793 11.1002L12.0628 12.5143L13.5073 14.2679L12.4577 15.1326L11.0131 13.379L9.28415 14.8033L8.46013 13.803L10.189 12.3787L8.74444 10.6251Z" fill="#31ABDF"/>
<circle cx="145.863" cy="69.8631" r="2.328" transform="rotate(-120 145.863 69.8631)" stroke="#31ABDF"/>
</svg>
