<svg width="32" height="31" viewBox="0 0 32 31" fill="none" xmlns="http://www.w3.org/2000/svg">
<path d="M28.3866 9.03148L19.9651 8.24393L16.6198 0.411334C16.3856 -0.137111 15.6144 -0.137111 15.3802 0.411334L12.0349 8.24386L3.61345 9.03148C3.02375 9.08659 2.78548 9.82615 3.23035 10.2202L9.58439 15.8486L7.72486 24.1679C7.59464 24.7504 8.2186 25.2075 8.72776 24.9026L16 20.5486L23.2723 24.9026C23.7815 25.2075 24.4053 24.7504 24.2752 24.1679L22.4156 15.8486L28.7697 10.2202C29.2145 9.82615 28.9762 9.08659 28.3866 9.03148Z" fill="#FFDC64"/>
<g opacity="0.153516">
<path d="M7.45476 0.499289C7.88089 1.09598 9.08364 3.65852 9.77126 5.15194C9.87939 5.3867 9.5872 5.59879 9.40064 5.42092C8.21395 4.2898 6.18489 2.32697 5.75876 1.73022C5.42158 1.2581 5.52789 0.599787 5.99626 0.259858C6.46458 -0.0800705 7.11758 0.0271694 7.45476 0.499289Z" fill="#FFF082"/>
<path d="M24.5452 0.499289C24.119 1.09598 22.9163 3.65852 22.2287 5.15194C22.1205 5.3867 22.4127 5.59879 22.5993 5.42092C23.786 4.2898 25.815 2.3269 26.2412 1.73022C26.5784 1.2581 26.472 0.599787 26.0037 0.259858C25.5354 -0.0800705 24.8824 0.0271694 24.5452 0.499289Z" fill="#FFF082"/>
<path d="M31.2787 17.997C30.5854 17.769 27.7982 17.3924 26.178 17.1857C25.9233 17.1532 25.8117 17.4983 26.0364 17.6235C27.4659 18.4196 29.9374 19.772 30.6307 19.9999C31.1794 20.1803 31.7692 19.8782 31.9481 19.3251C32.1271 18.7719 31.8274 18.1774 31.2787 17.997Z" fill="#FFF082"/>
<path d="M0.721159 17.997C1.41453 17.769 4.20172 17.3924 5.82191 17.1857C6.0766 17.1532 6.18822 17.4983 5.96353 17.6235C4.53397 18.4196 2.06253 19.772 1.36916 19.9999C0.820534 20.1803 0.230722 19.8782 0.0517842 19.3251C-0.127153 18.7719 0.172534 18.1774 0.721159 17.997Z" fill="#FFF082"/>
<path d="M14.9871 29.8854C14.9871 29.1502 15.4961 26.3621 15.8036 24.7451C15.8519 24.4909 16.212 24.4909 16.2603 24.7451C16.5678 26.3621 17.0769 29.1502 17.0769 29.8854C17.0769 30.4672 16.6091 30.9388 16.032 30.9388C15.4549 30.9388 14.9871 30.4672 14.9871 29.8854Z" fill="#FFF082"/>
</g>
<path d="M18 3.2596L16.7701 0.411335C16.5333 -0.137112 15.7536 -0.137112 15.5168 0.411335L12.1346 8.24387L3.62023 9.03149C3.02402 9.0866 2.78311 9.82616 3.2329 10.2203L9.65707 15.8486L7.77702 24.1679C7.64536 24.7505 8.2762 25.2075 8.79099 24.9027L9.76956 24.3232C11.3738 13.9663 15.8839 6.36361 18 3.2596Z" fill="#FFC850"/>
</svg>
