<svg width="285" height="81" viewBox="0 0 285 81" fill="none" xmlns="http://www.w3.org/2000/svg">
<path d="M13.4619 66.6251L12.4122 65.7604L10.9676 67.514L9.25101 66.0999L8.42698 67.1002L10.1435 68.5143L8.69895 70.2679L9.74864 71.1326L11.1932 69.379L12.9221 70.8033L13.7462 69.803L12.0173 68.3787L13.4619 66.6251Z" fill="#31ABDF"/>
<path d="M275.462 10.6251L274.412 9.76039L272.968 11.514L271.251 10.0999L270.427 11.1002L272.144 12.5143L270.699 14.2679L271.749 15.1326L273.193 13.379L274.922 14.8033L275.746 13.803L274.017 12.3787L275.462 10.6251Z" fill="#31ABDF"/>
<circle r="2.328" transform="matrix(0.5 -0.866025 -0.866025 -0.5 138.343 69.8631)" stroke="#31ABDF"/>
</svg>
