<svg width="1920" height="954" viewBox="0 0 1920 954" fill="none" xmlns="http://www.w3.org/2000/svg">
<rect width="1920" height="954" fill="url(#paint0_radial_63_666)"/>
<mask id="mask0_63_666" style="mask-type:alpha" maskUnits="userSpaceOnUse" x="0" y="0" width="1920" height="954">
<path d="M0 0H1920V954H0V0Z" fill="#31ABDF"/>
</mask>
<g mask="url(#mask0_63_666)">
<g opacity="0.02">
<line x1="-2.18792" y1="1079.28" x2="559.276" y2="-23.811" stroke="#074E6A" stroke-width="10" stroke-linecap="round"/>
<line x1="-32.1879" y1="1079.28" x2="529.276" y2="-23.811" stroke="#074E6A" stroke-width="10" stroke-linecap="round"/>
<line x1="-62.1879" y1="1079.28" x2="499.276" y2="-23.811" stroke="#074E6A" stroke-width="10" stroke-linecap="round"/>
<line x1="-92.1879" y1="1079.28" x2="469.276" y2="-23.811" stroke="#074E6A" stroke-width="10" stroke-linecap="round"/>
<line x1="-122.188" y1="1079.28" x2="439.276" y2="-23.811" stroke="#074E6A" stroke-width="10" stroke-linecap="round"/>
<line x1="-152.188" y1="1079.28" x2="409.276" y2="-23.811" stroke="#074E6A" stroke-width="10" stroke-linecap="round"/>
<line x1="-182.188" y1="1079.28" x2="379.276" y2="-23.811" stroke="#074E6A" stroke-width="10" stroke-linecap="round"/>
<line x1="-212.188" y1="1079.28" x2="349.276" y2="-23.811" stroke="#074E6A" stroke-width="10" stroke-linecap="round"/>
<line x1="-242.188" y1="1079.28" x2="319.276" y2="-23.811" stroke="#074E6A" stroke-width="10" stroke-linecap="round"/>
<line x1="-272.188" y1="1079.28" x2="289.276" y2="-23.811" stroke="#074E6A" stroke-width="10" stroke-linecap="round"/>
<line x1="-302.188" y1="1079.28" x2="259.276" y2="-23.8115" stroke="#074E6A" stroke-width="10" stroke-linecap="round"/>
<line x1="-332.188" y1="1079.28" x2="229.276" y2="-23.8115" stroke="#074E6A" stroke-width="10" stroke-linecap="round"/>
<line x1="-362.188" y1="1079.28" x2="199.276" y2="-23.8115" stroke="#074E6A" stroke-width="10" stroke-linecap="round"/>
<line x1="-392.188" y1="1079.28" x2="169.276" y2="-23.8115" stroke="#074E6A" stroke-width="10" stroke-linecap="round"/>
<line x1="-422.188" y1="1079.28" x2="139.276" y2="-23.812" stroke="#074E6A" stroke-width="10" stroke-linecap="round"/>
<line x1="-452.188" y1="1079.28" x2="109.276" y2="-23.812" stroke="#074E6A" stroke-width="10" stroke-linecap="round"/>
<line x1="-482.188" y1="1079.28" x2="79.2759" y2="-23.812" stroke="#074E6A" stroke-width="10" stroke-linecap="round"/>
<line x1="-512.188" y1="1079.28" x2="49.2759" y2="-23.812" stroke="#074E6A" stroke-width="10" stroke-linecap="round"/>
<line x1="-542.188" y1="1079.28" x2="19.2759" y2="-23.812" stroke="#074E6A" stroke-width="10" stroke-linecap="round"/>
<line x1="27.8121" y1="1079.28" x2="589.276" y2="-23.811" stroke="#074E6A" stroke-width="10" stroke-linecap="round"/>
<line x1="57.8121" y1="1079.28" x2="619.276" y2="-23.811" stroke="#074E6A" stroke-width="10" stroke-linecap="round"/>
<line x1="87.8121" y1="1079.28" x2="649.276" y2="-23.811" stroke="#074E6A" stroke-width="10" stroke-linecap="round"/>
<line x1="117.812" y1="1079.28" x2="679.276" y2="-23.811" stroke="#074E6A" stroke-width="10" stroke-linecap="round"/>
<line x1="147.812" y1="1079.28" x2="709.276" y2="-23.811" stroke="#074E6A" stroke-width="10" stroke-linecap="round"/>
<line x1="177.812" y1="1079.28" x2="739.276" y2="-23.811" stroke="#074E6A" stroke-width="10" stroke-linecap="round"/>
<line x1="207.812" y1="1079.28" x2="769.276" y2="-23.811" stroke="#074E6A" stroke-width="10" stroke-linecap="round"/>
<line x1="237.812" y1="1079.28" x2="799.276" y2="-23.811" stroke="#074E6A" stroke-width="10" stroke-linecap="round"/>
<line x1="267.812" y1="1079.28" x2="829.276" y2="-23.811" stroke="#074E6A" stroke-width="10" stroke-linecap="round"/>
<line x1="297.812" y1="1079.28" x2="859.276" y2="-23.811" stroke="#074E6A" stroke-width="10" stroke-linecap="round"/>
<line x1="327.812" y1="1079.28" x2="889.276" y2="-23.811" stroke="#074E6A" stroke-width="10" stroke-linecap="round"/>
<line x1="357.812" y1="1079.28" x2="919.276" y2="-23.811" stroke="#074E6A" stroke-width="10" stroke-linecap="round"/>
<line x1="387.812" y1="1079.28" x2="949.276" y2="-23.811" stroke="#074E6A" stroke-width="10" stroke-linecap="round"/>
<line x1="417.812" y1="1079.28" x2="979.276" y2="-23.811" stroke="#074E6A" stroke-width="10" stroke-linecap="round"/>
<line x1="447.812" y1="1079.28" x2="1009.28" y2="-23.811" stroke="#074E6A" stroke-width="10" stroke-linecap="round"/>
<line x1="477.812" y1="1079.28" x2="1039.28" y2="-23.811" stroke="#074E6A" stroke-width="10" stroke-linecap="round"/>
<line x1="507.812" y1="1079.28" x2="1069.28" y2="-23.811" stroke="#074E6A" stroke-width="10" stroke-linecap="round"/>
<line x1="537.812" y1="1079.28" x2="1099.28" y2="-23.811" stroke="#074E6A" stroke-width="10" stroke-linecap="round"/>
<line x1="567.812" y1="1079.28" x2="1129.28" y2="-23.811" stroke="#074E6A" stroke-width="10" stroke-linecap="round"/>
<line x1="597.812" y1="1079.28" x2="1159.28" y2="-23.811" stroke="#074E6A" stroke-width="10" stroke-linecap="round"/>
<line x1="627.812" y1="1079.28" x2="1189.28" y2="-23.811" stroke="#074E6A" stroke-width="10" stroke-linecap="round"/>
<line x1="657.812" y1="1079.28" x2="1219.28" y2="-23.811" stroke="#074E6A" stroke-width="10" stroke-linecap="round"/>
<line x1="687.812" y1="1079.28" x2="1249.28" y2="-23.811" stroke="#074E6A" stroke-width="10" stroke-linecap="round"/>
<line x1="717.812" y1="1079.28" x2="1279.28" y2="-23.811" stroke="#074E6A" stroke-width="10" stroke-linecap="round"/>
<line x1="747.812" y1="1079.28" x2="1309.28" y2="-23.811" stroke="#074E6A" stroke-width="10" stroke-linecap="round"/>
<line x1="777.812" y1="1079.28" x2="1339.28" y2="-23.811" stroke="#074E6A" stroke-width="10" stroke-linecap="round"/>
<line x1="807.812" y1="1079.28" x2="1369.28" y2="-23.811" stroke="#074E6A" stroke-width="10" stroke-linecap="round"/>
<line x1="837.812" y1="1079.28" x2="1399.28" y2="-23.811" stroke="#074E6A" stroke-width="10" stroke-linecap="round"/>
<line x1="867.812" y1="1079.28" x2="1429.28" y2="-23.811" stroke="#074E6A" stroke-width="10" stroke-linecap="round"/>
<line x1="897.812" y1="1079.28" x2="1459.28" y2="-23.811" stroke="#074E6A" stroke-width="10" stroke-linecap="round"/>
<line x1="927.812" y1="1079.28" x2="1489.28" y2="-23.811" stroke="#074E6A" stroke-width="10" stroke-linecap="round"/>
<line x1="957.812" y1="1079.28" x2="1519.28" y2="-23.811" stroke="#074E6A" stroke-width="10" stroke-linecap="round"/>
<line x1="987.812" y1="1079.28" x2="1549.28" y2="-23.811" stroke="#074E6A" stroke-width="10" stroke-linecap="round"/>
<line x1="1017.81" y1="1079.28" x2="1579.28" y2="-23.811" stroke="#074E6A" stroke-width="10" stroke-linecap="round"/>
<line x1="1047.81" y1="1079.28" x2="1609.28" y2="-23.811" stroke="#074E6A" stroke-width="10" stroke-linecap="round"/>
<line x1="1077.81" y1="1079.28" x2="1639.28" y2="-23.811" stroke="#074E6A" stroke-width="10" stroke-linecap="round"/>
<line x1="1107.81" y1="1079.28" x2="1669.28" y2="-23.811" stroke="#074E6A" stroke-width="10" stroke-linecap="round"/>
<line x1="1137.81" y1="1079.28" x2="1699.28" y2="-23.811" stroke="#074E6A" stroke-width="10" stroke-linecap="round"/>
<line x1="1167.81" y1="1079.28" x2="1729.28" y2="-23.811" stroke="#074E6A" stroke-width="10" stroke-linecap="round"/>
<line x1="1197.81" y1="1079.28" x2="1759.28" y2="-23.811" stroke="#074E6A" stroke-width="10" stroke-linecap="round"/>
<line x1="1227.81" y1="1079.28" x2="1789.28" y2="-23.811" stroke="#074E6A" stroke-width="10" stroke-linecap="round"/>
<line x1="1257.81" y1="1079.28" x2="1819.28" y2="-23.811" stroke="#074E6A" stroke-width="10" stroke-linecap="round"/>
<line x1="1287.81" y1="1079.28" x2="1849.28" y2="-23.811" stroke="#074E6A" stroke-width="10" stroke-linecap="round"/>
<line x1="1317.81" y1="1079.28" x2="1879.28" y2="-23.811" stroke="#074E6A" stroke-width="10" stroke-linecap="round"/>
<line x1="1347.81" y1="1079.28" x2="1909.28" y2="-23.811" stroke="#074E6A" stroke-width="10" stroke-linecap="round"/>
<line x1="1377.81" y1="1079.28" x2="1939.28" y2="-23.811" stroke="#074E6A" stroke-width="10" stroke-linecap="round"/>
<line x1="1407.81" y1="1079.28" x2="1969.28" y2="-23.811" stroke="#074E6A" stroke-width="10" stroke-linecap="round"/>
<line x1="1437.81" y1="1079.28" x2="1999.28" y2="-23.811" stroke="#074E6A" stroke-width="10" stroke-linecap="round"/>
<line x1="1467.81" y1="1079.28" x2="2029.28" y2="-23.811" stroke="#074E6A" stroke-width="10" stroke-linecap="round"/>
<line x1="1497.81" y1="1079.28" x2="2059.28" y2="-23.811" stroke="#074E6A" stroke-width="10" stroke-linecap="round"/>
<line x1="1527.81" y1="1079.28" x2="2089.28" y2="-23.811" stroke="#074E6A" stroke-width="10" stroke-linecap="round"/>
<line x1="1557.81" y1="1079.28" x2="2119.28" y2="-23.811" stroke="#074E6A" stroke-width="10" stroke-linecap="round"/>
<line x1="1587.81" y1="1079.28" x2="2149.28" y2="-23.811" stroke="#074E6A" stroke-width="10" stroke-linecap="round"/>
<line x1="1617.81" y1="1079.28" x2="2179.28" y2="-23.811" stroke="#074E6A" stroke-width="10" stroke-linecap="round"/>
<line x1="1647.81" y1="1079.28" x2="2209.28" y2="-23.811" stroke="#074E6A" stroke-width="10" stroke-linecap="round"/>
<line x1="1677.81" y1="1079.28" x2="2239.28" y2="-23.811" stroke="#074E6A" stroke-width="10" stroke-linecap="round"/>
<line x1="1707.81" y1="1079.28" x2="2269.28" y2="-23.811" stroke="#074E6A" stroke-width="10" stroke-linecap="round"/>
<line x1="1737.81" y1="1079.28" x2="2299.28" y2="-23.811" stroke="#074E6A" stroke-width="10" stroke-linecap="round"/>
<line x1="1767.81" y1="1079.28" x2="2329.28" y2="-23.811" stroke="#074E6A" stroke-width="10" stroke-linecap="round"/>
<line x1="1797.81" y1="1079.28" x2="2359.28" y2="-23.811" stroke="#074E6A" stroke-width="10" stroke-linecap="round"/>
<line x1="1827.81" y1="1079.28" x2="2389.28" y2="-23.811" stroke="#074E6A" stroke-width="10" stroke-linecap="round"/>
<line x1="1857.81" y1="1079.28" x2="2419.28" y2="-23.811" stroke="#074E6A" stroke-width="10" stroke-linecap="round"/>
</g>
<circle opacity="0.1" cx="1345.5" cy="1030.5" r="173.5" stroke="white" stroke-width="100"/>
</g>
<defs>
<radialGradient id="paint0_radial_63_666" cx="0" cy="0" r="1" gradientUnits="userSpaceOnUse" gradientTransform="translate(960 477) rotate(90) scale(477 960)">
<stop stop-color="#2A93C0" stop-opacity="0"/>
<stop offset="1" stop-color="#41B1E1"/>
</radialGradient>
</defs>
</svg>
